<mxfile host="app.diagrams.net" modified="2023-12-31T13:01:32.835Z" agent="Mozilla/5.0 (Windows NT 10.0; Win64; x64) AppleWebKit/537.36 (KHTML, like Gecko) Chrome/120.0.0.0 Safari/537.36" etag="ULEK9hVxi1L2X7ewwvHH" version="22.1.16" type="github">
  <diagram name="Page-1" id="YtD3IEwdjvRdOcm1pk24">
    <mxGraphModel dx="1434" dy="780" grid="1" gridSize="10" guides="1" tooltips="1" connect="1" arrows="1" fold="1" page="1" pageScale="1" pageWidth="827" pageHeight="1169" math="0" shadow="0">
      <root>
        <mxCell id="0" />
        <mxCell id="1" parent="0" />
        <mxCell id="BQfw0d3N3UjLErHc_jdj-1" value="User select Research Bar" style="whiteSpace=wrap;html=1;aspect=fixed;" vertex="1" parent="1">
          <mxGeometry x="180" y="130" width="80" height="80" as="geometry" />
        </mxCell>
        <mxCell id="BQfw0d3N3UjLErHc_jdj-2" value="" style="endArrow=classic;html=1;rounded=0;exitX=0.5;exitY=1;exitDx=0;exitDy=0;entryX=0.5;entryY=0;entryDx=0;entryDy=0;" edge="1" parent="1" source="BQfw0d3N3UjLErHc_jdj-1" target="BQfw0d3N3UjLErHc_jdj-4">
          <mxGeometry width="50" height="50" relative="1" as="geometry">
            <mxPoint x="219.5" y="150" as="sourcePoint" />
            <mxPoint x="219.5" y="260" as="targetPoint" />
          </mxGeometry>
        </mxCell>
        <mxCell id="BQfw0d3N3UjLErHc_jdj-28" style="edgeStyle=orthogonalEdgeStyle;rounded=0;orthogonalLoop=1;jettySize=auto;html=1;" edge="1" parent="1" source="BQfw0d3N3UjLErHc_jdj-4" target="BQfw0d3N3UjLErHc_jdj-16">
          <mxGeometry relative="1" as="geometry" />
        </mxCell>
        <mxCell id="BQfw0d3N3UjLErHc_jdj-4" value="User put at least 3 caracters&amp;nbsp;" style="rhombus;whiteSpace=wrap;html=1;" vertex="1" parent="1">
          <mxGeometry x="160" y="410" width="120" height="130" as="geometry" />
        </mxCell>
        <mxCell id="BQfw0d3N3UjLErHc_jdj-5" value="User select Research Bar of one filter" style="whiteSpace=wrap;html=1;aspect=fixed;" vertex="1" parent="1">
          <mxGeometry x="630" y="120" width="80" height="80" as="geometry" />
        </mxCell>
        <mxCell id="BQfw0d3N3UjLErHc_jdj-7" value="Full list of recipes" style="rounded=1;whiteSpace=wrap;html=1;" vertex="1" parent="1">
          <mxGeometry x="380" y="10" width="120" height="60" as="geometry" />
        </mxCell>
        <mxCell id="BQfw0d3N3UjLErHc_jdj-9" value="User put at least 3 caracters" style="rhombus;whiteSpace=wrap;html=1;" vertex="1" parent="1">
          <mxGeometry x="610" y="240" width="120" height="130" as="geometry" />
        </mxCell>
        <mxCell id="BQfw0d3N3UjLErHc_jdj-10" value="" style="endArrow=classic;html=1;rounded=0;exitX=0.5;exitY=1;exitDx=0;exitDy=0;entryX=0.5;entryY=0;entryDx=0;entryDy=0;" edge="1" parent="1" source="BQfw0d3N3UjLErHc_jdj-5" target="BQfw0d3N3UjLErHc_jdj-9">
          <mxGeometry width="50" height="50" relative="1" as="geometry">
            <mxPoint x="390" y="430" as="sourcePoint" />
            <mxPoint x="440" y="380" as="targetPoint" />
          </mxGeometry>
        </mxCell>
        <mxCell id="BQfw0d3N3UjLErHc_jdj-11" value="" style="endArrow=classic;html=1;rounded=0;exitX=0;exitY=0.5;exitDx=0;exitDy=0;entryX=0;entryY=0.5;entryDx=0;entryDy=0;" edge="1" parent="1" source="BQfw0d3N3UjLErHc_jdj-4" target="BQfw0d3N3UjLErHc_jdj-7">
          <mxGeometry width="50" height="50" relative="1" as="geometry">
            <mxPoint x="390" y="430" as="sourcePoint" />
            <mxPoint x="80" y="20" as="targetPoint" />
            <Array as="points">
              <mxPoint x="80" y="475" />
              <mxPoint x="80" y="40" />
            </Array>
          </mxGeometry>
        </mxCell>
        <mxCell id="BQfw0d3N3UjLErHc_jdj-12" value="No" style="text;html=1;strokeColor=none;fillColor=none;align=center;verticalAlign=middle;whiteSpace=wrap;rounded=0;" vertex="1" parent="1">
          <mxGeometry x="20" y="210" width="60" height="30" as="geometry" />
        </mxCell>
        <mxCell id="BQfw0d3N3UjLErHc_jdj-13" value="recipes filtered from research bar" style="rounded=1;whiteSpace=wrap;html=1;" vertex="1" parent="1">
          <mxGeometry x="160" y="900" width="120" height="60" as="geometry" />
        </mxCell>
        <mxCell id="BQfw0d3N3UjLErHc_jdj-14" value="" style="endArrow=classic;html=1;rounded=0;exitX=0.5;exitY=1;exitDx=0;exitDy=0;entryX=0.5;entryY=0;entryDx=0;entryDy=0;" edge="1" parent="1" source="BQfw0d3N3UjLErHc_jdj-4" target="BQfw0d3N3UjLErHc_jdj-13">
          <mxGeometry width="50" height="50" relative="1" as="geometry">
            <mxPoint x="390" y="430" as="sourcePoint" />
            <mxPoint x="440" y="380" as="targetPoint" />
          </mxGeometry>
        </mxCell>
        <mxCell id="BQfw0d3N3UjLErHc_jdj-15" value="Yes" style="text;html=1;strokeColor=none;fillColor=none;align=center;verticalAlign=middle;whiteSpace=wrap;rounded=0;" vertex="1" parent="1">
          <mxGeometry x="210" y="560" width="60" height="30" as="geometry" />
        </mxCell>
        <mxCell id="BQfw0d3N3UjLErHc_jdj-35" style="edgeStyle=orthogonalEdgeStyle;rounded=0;orthogonalLoop=1;jettySize=auto;html=1;exitX=0.25;exitY=1;exitDx=0;exitDy=0;entryX=0.5;entryY=0;entryDx=0;entryDy=0;" edge="1" parent="1" source="BQfw0d3N3UjLErHc_jdj-16" target="BQfw0d3N3UjLErHc_jdj-33">
          <mxGeometry relative="1" as="geometry" />
        </mxCell>
        <mxCell id="BQfw0d3N3UjLErHc_jdj-36" style="edgeStyle=orthogonalEdgeStyle;rounded=0;orthogonalLoop=1;jettySize=auto;html=1;exitX=0.75;exitY=1;exitDx=0;exitDy=0;entryX=0.5;entryY=0;entryDx=0;entryDy=0;" edge="1" parent="1" source="BQfw0d3N3UjLErHc_jdj-16" target="BQfw0d3N3UjLErHc_jdj-34">
          <mxGeometry relative="1" as="geometry" />
        </mxCell>
        <mxCell id="BQfw0d3N3UjLErHc_jdj-16" value="recipes filtered from research bar and filter" style="rounded=1;whiteSpace=wrap;html=1;" vertex="1" parent="1">
          <mxGeometry x="390" y="445" width="120" height="60" as="geometry" />
        </mxCell>
        <mxCell id="BQfw0d3N3UjLErHc_jdj-29" style="edgeStyle=orthogonalEdgeStyle;rounded=0;orthogonalLoop=1;jettySize=auto;html=1;" edge="1" parent="1" source="BQfw0d3N3UjLErHc_jdj-17" target="BQfw0d3N3UjLErHc_jdj-16">
          <mxGeometry relative="1" as="geometry" />
        </mxCell>
        <mxCell id="BQfw0d3N3UjLErHc_jdj-17" value="User select one filter" style="rhombus;whiteSpace=wrap;html=1;" vertex="1" parent="1">
          <mxGeometry x="610" y="410" width="120" height="130" as="geometry" />
        </mxCell>
        <mxCell id="BQfw0d3N3UjLErHc_jdj-18" value="" style="endArrow=classic;html=1;rounded=0;exitX=1;exitY=0.5;exitDx=0;exitDy=0;entryX=1;entryY=0.5;entryDx=0;entryDy=0;" edge="1" parent="1" source="BQfw0d3N3UjLErHc_jdj-9" target="BQfw0d3N3UjLErHc_jdj-7">
          <mxGeometry width="50" height="50" relative="1" as="geometry">
            <mxPoint x="390" y="430" as="sourcePoint" />
            <mxPoint x="800" y="20" as="targetPoint" />
            <Array as="points">
              <mxPoint x="800" y="305" />
              <mxPoint x="800" y="40" />
            </Array>
          </mxGeometry>
        </mxCell>
        <mxCell id="BQfw0d3N3UjLErHc_jdj-19" value="No" style="text;html=1;strokeColor=none;fillColor=none;align=center;verticalAlign=middle;whiteSpace=wrap;rounded=0;" vertex="1" parent="1">
          <mxGeometry x="800" y="145" width="60" height="30" as="geometry" />
        </mxCell>
        <mxCell id="BQfw0d3N3UjLErHc_jdj-20" value="" style="endArrow=classic;html=1;rounded=0;exitX=0.5;exitY=1;exitDx=0;exitDy=0;entryX=0.5;entryY=0;entryDx=0;entryDy=0;" edge="1" parent="1" source="BQfw0d3N3UjLErHc_jdj-9" target="BQfw0d3N3UjLErHc_jdj-17">
          <mxGeometry width="50" height="50" relative="1" as="geometry">
            <mxPoint x="390" y="430" as="sourcePoint" />
            <mxPoint x="440" y="380" as="targetPoint" />
          </mxGeometry>
        </mxCell>
        <mxCell id="BQfw0d3N3UjLErHc_jdj-21" value="Yes" style="text;html=1;strokeColor=none;fillColor=none;align=center;verticalAlign=middle;whiteSpace=wrap;rounded=0;" vertex="1" parent="1">
          <mxGeometry x="670" y="370" width="60" height="30" as="geometry" />
        </mxCell>
        <mxCell id="BQfw0d3N3UjLErHc_jdj-23" value="No" style="text;html=1;strokeColor=none;fillColor=none;align=center;verticalAlign=middle;whiteSpace=wrap;rounded=0;" vertex="1" parent="1">
          <mxGeometry x="800" y="370" width="60" height="30" as="geometry" />
        </mxCell>
        <mxCell id="BQfw0d3N3UjLErHc_jdj-24" value="" style="endArrow=classic;html=1;rounded=0;exitX=0.5;exitY=1;exitDx=0;exitDy=0;" edge="1" parent="1" source="BQfw0d3N3UjLErHc_jdj-17" target="BQfw0d3N3UjLErHc_jdj-25">
          <mxGeometry width="50" height="50" relative="1" as="geometry">
            <mxPoint x="390" y="430" as="sourcePoint" />
            <mxPoint x="670" y="570" as="targetPoint" />
          </mxGeometry>
        </mxCell>
        <mxCell id="BQfw0d3N3UjLErHc_jdj-25" value="Recipes filtered from a filter and create a tag" style="rounded=1;whiteSpace=wrap;html=1;" vertex="1" parent="1">
          <mxGeometry x="610" y="900" width="120" height="60" as="geometry" />
        </mxCell>
        <mxCell id="BQfw0d3N3UjLErHc_jdj-26" value="" style="endArrow=none;html=1;rounded=0;exitX=1;exitY=0.5;exitDx=0;exitDy=0;" edge="1" parent="1" source="BQfw0d3N3UjLErHc_jdj-17">
          <mxGeometry width="50" height="50" relative="1" as="geometry">
            <mxPoint x="390" y="430" as="sourcePoint" />
            <mxPoint x="800" y="300" as="targetPoint" />
            <Array as="points">
              <mxPoint x="800" y="475" />
            </Array>
          </mxGeometry>
        </mxCell>
        <mxCell id="BQfw0d3N3UjLErHc_jdj-27" value="Yes" style="text;html=1;strokeColor=none;fillColor=none;align=center;verticalAlign=middle;whiteSpace=wrap;rounded=0;" vertex="1" parent="1">
          <mxGeometry x="660" y="530" width="60" height="30" as="geometry" />
        </mxCell>
        <mxCell id="BQfw0d3N3UjLErHc_jdj-30" value="Yes" style="text;html=1;strokeColor=none;fillColor=none;align=center;verticalAlign=middle;whiteSpace=wrap;rounded=0;" vertex="1" parent="1">
          <mxGeometry x="540" y="440" width="60" height="30" as="geometry" />
        </mxCell>
        <mxCell id="BQfw0d3N3UjLErHc_jdj-31" value="Yes" style="text;html=1;strokeColor=none;fillColor=none;align=center;verticalAlign=middle;whiteSpace=wrap;rounded=0;" vertex="1" parent="1">
          <mxGeometry x="290" y="440" width="60" height="30" as="geometry" />
        </mxCell>
        <mxCell id="BQfw0d3N3UjLErHc_jdj-42" style="edgeStyle=orthogonalEdgeStyle;rounded=0;orthogonalLoop=1;jettySize=auto;html=1;exitX=0.5;exitY=1;exitDx=0;exitDy=0;entryX=1;entryY=0.5;entryDx=0;entryDy=0;" edge="1" parent="1" source="BQfw0d3N3UjLErHc_jdj-33" target="BQfw0d3N3UjLErHc_jdj-13">
          <mxGeometry relative="1" as="geometry" />
        </mxCell>
        <mxCell id="BQfw0d3N3UjLErHc_jdj-33" value="&lt;font style=&quot;font-size: 12px;&quot;&gt;User delete one tag&lt;/font&gt;" style="rhombus;whiteSpace=wrap;html=1;" vertex="1" parent="1">
          <mxGeometry x="280" y="560" width="120" height="130" as="geometry" />
        </mxCell>
        <mxCell id="BQfw0d3N3UjLErHc_jdj-43" style="edgeStyle=orthogonalEdgeStyle;rounded=0;orthogonalLoop=1;jettySize=auto;html=1;exitX=0.5;exitY=1;exitDx=0;exitDy=0;entryX=0;entryY=0.5;entryDx=0;entryDy=0;" edge="1" parent="1" source="BQfw0d3N3UjLErHc_jdj-34" target="BQfw0d3N3UjLErHc_jdj-25">
          <mxGeometry relative="1" as="geometry" />
        </mxCell>
        <mxCell id="BQfw0d3N3UjLErHc_jdj-34" value="&lt;font style=&quot;font-size: 9px;&quot;&gt;User delete caracters in the research Bar&lt;/font&gt;" style="rhombus;whiteSpace=wrap;html=1;" vertex="1" parent="1">
          <mxGeometry x="510" y="560" width="120" height="130" as="geometry" />
        </mxCell>
        <mxCell id="BQfw0d3N3UjLErHc_jdj-38" value="" style="endArrow=classic;html=1;rounded=0;exitX=1;exitY=0.5;exitDx=0;exitDy=0;" edge="1" parent="1" source="BQfw0d3N3UjLErHc_jdj-33">
          <mxGeometry width="50" height="50" relative="1" as="geometry">
            <mxPoint x="390" y="730" as="sourcePoint" />
            <mxPoint x="440" y="510" as="targetPoint" />
            <Array as="points">
              <mxPoint x="440" y="625" />
            </Array>
          </mxGeometry>
        </mxCell>
        <mxCell id="BQfw0d3N3UjLErHc_jdj-39" value="" style="endArrow=classic;html=1;rounded=0;exitX=0;exitY=0.5;exitDx=0;exitDy=0;entryX=0.583;entryY=1.083;entryDx=0;entryDy=0;entryPerimeter=0;" edge="1" parent="1" source="BQfw0d3N3UjLErHc_jdj-34" target="BQfw0d3N3UjLErHc_jdj-16">
          <mxGeometry width="50" height="50" relative="1" as="geometry">
            <mxPoint x="390" y="730" as="sourcePoint" />
            <mxPoint x="450" y="625" as="targetPoint" />
            <Array as="points">
              <mxPoint x="460" y="625" />
            </Array>
          </mxGeometry>
        </mxCell>
        <mxCell id="BQfw0d3N3UjLErHc_jdj-40" value="No" style="text;html=1;strokeColor=none;fillColor=none;align=center;verticalAlign=middle;whiteSpace=wrap;rounded=0;" vertex="1" parent="1">
          <mxGeometry x="460" y="570" width="60" height="30" as="geometry" />
        </mxCell>
        <mxCell id="BQfw0d3N3UjLErHc_jdj-41" value="No" style="text;html=1;strokeColor=none;fillColor=none;align=center;verticalAlign=middle;whiteSpace=wrap;rounded=0;" vertex="1" parent="1">
          <mxGeometry x="380" y="570" width="60" height="30" as="geometry" />
        </mxCell>
        <mxCell id="BQfw0d3N3UjLErHc_jdj-44" value="Yes" style="text;html=1;strokeColor=none;fillColor=none;align=center;verticalAlign=middle;whiteSpace=wrap;rounded=0;" vertex="1" parent="1">
          <mxGeometry x="330" y="770" width="60" height="30" as="geometry" />
        </mxCell>
        <mxCell id="BQfw0d3N3UjLErHc_jdj-45" value="Yes" style="text;html=1;strokeColor=none;fillColor=none;align=center;verticalAlign=middle;whiteSpace=wrap;rounded=0;" vertex="1" parent="1">
          <mxGeometry x="520" y="770" width="60" height="30" as="geometry" />
        </mxCell>
      </root>
    </mxGraphModel>
  </diagram>
</mxfile>
